<?xml version="1.0" standalone="no"?>
<!DOCTYPE svg PUBLIC "-//W3C//DTD SVG 20010904//EN"
 "http://www.w3.org/TR/2001/REC-SVG-20010904/DTD/svg10.dtd">
<svg version="1.0" xmlns="http://www.w3.org/2000/svg"
 width="1280.000000pt" height="1280.000000pt" viewBox="0 0 1280.000000 1280.000000"
 preserveAspectRatio="xMidYMid meet">

<g transform="translate(0.000000,1280.000000) scale(0.100000,-0.100000)"
fill="#ff9100" stroke="none">
<path d="M6690 9728 c-103 -16 -216 -107 -296 -238 -69 -112 -94 -172 -187
-452 -41 -123 -93 -281 -116 -353 -23 -71 -49 -141 -57 -153 -9 -13 -34 -32
-57 -42 -35 -16 -197 -57 -287 -74 -14 -2 -113 -25 -220 -51 -107 -26 -231
-56 -275 -65 -44 -10 -118 -28 -165 -40 -47 -12 -130 -33 -185 -45 -55 -13
-192 -44 -305 -70 -113 -26 -244 -55 -291 -65 -48 -11 -126 -28 -175 -40 -49
-11 -111 -26 -139 -32 -27 -6 -75 -17 -105 -25 -30 -8 -65 -17 -77 -20 -40 -9
-112 -81 -123 -122 -13 -48 -6 -82 65 -301 31 -96 67 -216 80 -265 13 -50 29
-103 34 -118 17 -45 14 -95 -8 -106 -11 -7 -216 -10 -552 -11 -586 0 -743 -6
-764 -27 -8 -7 -18 -13 -23 -13 -13 0 -57 -69 -70 -110 -17 -56 -21 -111 -28
-370 -6 -240 -6 -245 15 -270 l21 -25 24 29 c13 16 34 65 46 110 64 234 104
299 206 333 17 6 122 11 233 12 170 2 207 -1 227 -14 l24 -15 0 -1353 c0
-1109 3 -1357 13 -1378 45 -86 120 -116 219 -89 43 12 105 69 112 102 12 56
16 493 16 1564 0 1054 2 1153 17 1165 12 10 68 15 215 19 109 3 198 2 198 -2
0 -5 10 -8 23 -8 42 0 67 -63 83 -213 21 -201 31 -250 53 -268 28 -23 64 -13
86 23 16 27 18 61 19 304 1 150 5 277 9 280 18 18 22 -23 25 -237 5 -353 -11
-418 -105 -425 -21 -2 -40 -3 -43 -3 -7 -1 84 -61 93 -61 4 0 26 -13 49 -30
56 -41 89 -39 127 7 25 30 30 44 26 72 -8 59 -8 224 0 256 4 17 12 36 18 43
12 16 55 15 86 -2 23 -13 23 -13 4 -27 -38 -27 -43 -52 -41 -201 l2 -143 5
152 c4 105 10 156 19 165 9 9 58 14 169 16 176 4 217 -1 229 -26 5 -9 11 -361
14 -782 l5 -765 32 -73 c65 -151 132 -240 257 -340 94 -76 176 -132 258 -176
74 -40 103 -48 48 -14 -19 12 -66 42 -104 67 -37 25 -80 54 -94 63 -15 10 -34
28 -44 40 -10 13 -18 19 -18 14 0 -5 -14 10 -30 32 -17 23 -35 42 -40 42 -6 0
-10 6 -10 14 0 7 -7 19 -15 26 -9 7 -13 15 -11 18 3 2 -2 11 -10 19 -8 9 -13
22 -10 30 3 8 1 11 -4 8 -6 -3 -10 1 -10 9 0 9 -4 16 -8 16 -10 0 -10 14 -17
769 -4 361 -10 642 -16 652 -5 10 -9 29 -9 43 0 14 -4 26 -9 26 -5 0 -13 10
-16 23 -8 24 -20 55 -54 129 -11 26 -21 52 -21 58 0 5 -5 9 -12 7 -14 -3 -48
62 -41 80 3 7 13 13 22 14 51 1 87 122 57 193 -9 21 -16 51 -16 67 0 15 -10
45 -22 66 -24 41 -25 42 -63 89 -14 18 -25 36 -25 41 0 15 -89 133 -100 133
-6 0 -2 -12 9 -27 36 -49 54 -145 43 -228 -12 -92 -35 -140 -84 -176 -93 -67
-217 -60 -293 16 -72 72 -173 235 -146 235 4 0 29 -33 56 -72 52 -79 152 -181
166 -172 5 3 9 0 9 -5 0 -17 114 -13 158 4 63 25 93 81 106 191 6 50 -8 153
-22 163 -4 4 -12 15 -18 25 -6 11 -23 29 -38 40 -25 19 -45 21 -268 26 -218 5
-241 7 -253 23 -13 18 -31 75 -70 217 -9 36 -23 85 -30 110 -46 163 -63 241
-58 260 6 23 104 60 199 75 37 5 308 66 324 72 8 3 22 7 30 8 15 2 135 31 390
92 80 19 154 37 165 39 11 2 47 10 80 18 33 8 123 29 200 46 77 17 163 37 190
45 101 27 206 46 232 43 l28 -4 -25 -11 c-14 -6 -95 -28 -180 -48 -85 -20
-261 -60 -390 -91 -129 -30 -305 -71 -390 -90 -85 -19 -207 -48 -270 -63 -63
-16 -160 -39 -215 -51 -55 -12 -113 -26 -130 -30 -16 -5 -68 -16 -115 -26 -47
-9 -89 -20 -94 -25 -5 -4 1 -38 12 -76 30 -100 122 -466 122 -486 0 -15 15
-17 153 -16 92 1 140 4 122 9 -16 4 -46 8 -65 9 -46 1 -80 25 -80 57 0 14 -4
33 -9 42 -16 32 -20 116 -5 133 7 8 15 24 17 35 7 43 38 72 103 95 35 12 64
26 64 30 0 7 72 25 140 33 19 3 55 9 80 15 25 6 83 19 130 30 135 31 323 78
351 89 14 6 52 13 85 17 32 4 77 15 99 25 22 10 74 21 115 25 41 4 101 16 134
27 32 10 65 17 72 14 9 -3 11 1 8 12 -5 14 -4 15 5 2 6 -8 11 -27 11 -42 0
-41 13 -34 28 15 30 97 105 297 118 314 12 17 13 16 14 -10 0 -16 -11 -56 -24
-90 -46 -123 -86 -263 -86 -306 0 -35 6 -48 31 -72 47 -43 88 -40 145 13 45
41 62 71 90 158 8 25 19 54 24 65 5 11 32 90 61 175 28 85 56 161 63 169 24
30 88 49 344 101 79 16 146 32 151 34 4 3 61 17 127 30 65 14 144 32 174 40
30 8 98 24 150 35 52 12 142 33 200 47 206 50 317 76 455 105 77 16 169 36
205 45 207 49 271 64 320 74 30 6 87 20 125 30 39 11 104 26 145 35 41 9 102
23 135 30 33 8 111 26 173 40 61 14 162 37 223 51 69 16 121 23 137 19 26 -7
25 -8 -18 -21 -25 -7 -130 -32 -235 -55 -104 -23 -307 -70 -450 -104 -345 -84
-718 -170 -835 -194 -52 -11 -178 -40 -280 -64 -102 -25 -210 -51 -240 -57
-48 -11 -188 -43 -405 -95 -33 -8 -175 -40 -315 -70 -140 -31 -258 -59 -261
-63 -3 -4 -18 -47 -34 -97 -37 -119 -138 -393 -164 -443 -33 -65 -73 -92 -136
-92 -30 0 -66 5 -81 10 -25 10 -26 9 -13 -6 7 -9 32 -28 53 -42 22 -14 54 -38
71 -54 43 -41 132 -81 190 -85 60 -5 111 22 128 67 6 17 14 30 18 30 3 0 14
21 23 48 10 26 26 65 36 87 23 52 52 134 48 137 -1 2 5 14 15 28 9 13 17 34
17 45 0 11 10 25 22 30 12 6 23 19 24 30 3 24 42 54 69 55 12 0 25 4 30 9 17
17 198 88 255 100 30 7 78 19 105 26 28 7 77 19 110 25 33 6 87 20 120 30 33
10 105 28 160 40 55 13 119 29 143 36 23 8 55 14 70 14 15 0 43 5 62 10 19 6
66 15 104 20 38 6 74 15 81 20 12 10 40 16 133 30 35 6 75 16 90 23 26 13 71
24 192 46 159 30 402 88 495 119 60 20 162 43 255 57 52 8 122 22 155 30 33 9
66 17 73 17 6 1 12 6 12 12 1 6 7 0 15 -14 8 -14 12 -33 9 -42 -8 -28 5 -21
17 9 5 14 20 76 33 137 32 152 45 196 56 196 13 0 13 -52 1 -99 -17 -68 -50
-216 -91 -406 -51 -238 -78 -361 -91 -401 -5 -17 -9 -38 -9 -47 0 -16 -47
-229 -75 -337 -8 -30 -24 -100 -35 -155 -12 -55 -28 -127 -35 -160 -34 -152
-64 -304 -70 -350 -11 -88 28 -244 122 -485 41 -104 56 -130 74 -130 22 0 34
34 54 162 14 85 130 673 150 758 4 14 10 43 15 65 36 162 52 235 60 265 5 19
12 51 15 70 3 19 15 69 25 110 19 70 53 229 121 550 30 144 49 229 124 545 68
286 72 312 50 361 -26 55 -43 73 -94 96 -37 17 -58 20 -116 15 -76 -6 -349
-63 -519 -108 -22 -6 -47 -12 -56 -14 -9 -2 -34 -8 -56 -14 -62 -17 -661 -156
-924 -215 -36 -8 -130 -31 -210 -51 -197 -50 -221 -52 -249 -23 -23 24 -55 94
-98 218 -14 41 -30 77 -35 78 -4 2 -8 10 -8 18 0 8 -4 22 -10 32 -5 9 -21 46
-36 82 -29 73 -106 219 -138 264 -40 57 -118 124 -180 155 -70 35 -152 45
-246 29z m122 -258 c20 -6 50 -23 67 -39 17 -16 32 -27 34 -25 2 2 10 -8 18
-24 8 -15 16 -29 19 -32 12 -12 51 -95 100 -210 29 -69 60 -143 70 -165 9 -22
21 -51 25 -65 4 -14 12 -27 16 -31 5 -3 10 -27 11 -55 3 -47 2 -50 -33 -66
-19 -10 -98 -31 -175 -48 -76 -16 -184 -40 -239 -53 -311 -75 -365 -85 -365
-67 0 10 3 11 240 70 223 55 237 59 175 54 -27 -3 -63 -7 -80 -9 -16 -2 -24
-1 -17 2 10 4 10 8 2 18 -12 15 22 137 65 230 13 28 26 61 30 74 4 14 16 39
26 55 11 17 22 39 25 49 4 9 16 20 28 23 12 3 30 16 40 29 16 21 22 23 39 13
33 -17 41 -28 85 -113 53 -102 54 -82 1 46 -100 245 -173 331 -267 315 -46 -7
-105 -64 -142 -136 -28 -57 -147 -379 -205 -556 -18 -56 -40 -114 -49 -130
-14 -27 -15 -27 -16 -6 0 31 33 151 70 252 18 47 43 117 56 155 14 39 31 84
39 102 8 17 15 35 15 39 0 14 65 169 73 172 4 2 5 7 2 12 -7 11 74 95 110 114
36 18 57 19 107 6z"/>
<path d="M7140 8800 c0 -5 5 -10 11 -10 5 0 7 5 4 10 -3 6 -8 10 -11 10 -2 0
-4 -4 -4 -10z"/>
<path d="M7099 9614 c70 -91 133 -206 194 -355 45 -110 169 -403 171 -406 3
-4 177 45 183 51 3 3 -16 3 -43 0 -40 -4 -53 -1 -74 16 -14 12 -19 19 -13 15
9 -4 11 -1 7 10 -4 9 -9 14 -12 11 -7 -7 -52 91 -52 113 0 21 -33 54 -44 44
-4 -4 -4 1 0 10 6 16 -48 142 -67 157 -3 3 -28 47 -55 98 -27 51 -59 105 -72
120 -79 94 -108 124 -125 134 -19 10 -19 9 2 -18z"/>
<path d="M9708 9130 c3 -35 -5 -90 -27 -182 -88 -373 -123 -528 -155 -678 -19
-91 -80 -363 -135 -605 -55 -242 -124 -561 -155 -710 -30 -148 -62 -301 -70
-340 -8 -38 -19 -106 -25 -150 -15 -113 -42 -212 -63 -235 -18 -20 -18 -20 15
-20 25 0 39 -6 50 -23 34 -53 48 -207 26 -307 l-11 -51 -29 32 c-16 18 -29 39
-29 46 0 8 -4 11 -10 8 -5 -3 -10 2 -10 12 0 27 -43 113 -57 113 -7 0 -13 6
-13 14 0 15 -77 86 -93 86 -4 0 5 -11 21 -24 16 -14 44 -53 62 -88 58 -108 53
-264 -12 -392 -81 -159 -353 -314 -600 -342 -53 -6 -57 -8 -47 -26 23 -44 87
-102 134 -124 92 -43 187 -30 290 40 21 15 48 26 59 24 51 -7 109 -135 92
-201 -12 -51 -124 -134 -216 -161 -199 -60 -413 -7 -567 139 -72 69 -82 64
-20 -12 49 -60 105 -110 150 -135 18 -10 27 -18 22 -18 -6 0 -2 -5 8 -11 9 -5
22 -7 29 -3 6 4 8 3 4 -4 -6 -10 73 -66 124 -87 8 -4 26 -12 40 -19 47 -25
160 -58 238 -70 122 -20 261 3 289 46 4 7 16 18 26 23 40 22 61 152 35 212 -7
15 -22 42 -34 58 -13 17 -34 53 -49 80 -14 28 -40 75 -57 105 -28 50 -29 53
-8 35 13 -11 20 -14 16 -7 -8 13 27 52 47 52 5 0 43 34 83 75 41 41 74 68 74
61 0 -8 4 -16 9 -18 5 -1 14 -41 19 -88 7 -60 10 115 11 605 1 533 4 696 14
715 7 14 43 41 81 62 38 21 85 50 103 66 66 53 106 82 113 82 3 0 14 -6 23
-13 17 -11 18 -64 17 -780 0 -820 0 -820 48 -846 12 -6 45 -11 74 -11 64 0
105 22 165 88 55 61 55 76 1 19 -27 -27 -53 -44 -69 -45 -26 -2 -27 -1 -33 88
-4 49 -4 95 0 102 5 7 7 220 6 473 -2 370 -6 475 -18 535 -9 41 -17 82 -19 91
-2 8 -14 32 -28 52 -14 21 -36 59 -48 85 -12 26 -28 54 -36 64 -8 9 -16 22
-17 30 -8 36 -27 66 -45 71 -28 7 -39 42 -30 91 3 23 10 67 14 99 4 37 10 55
17 51 6 -4 8 -2 5 3 -8 12 17 165 29 184 4 7 9 39 11 71 1 32 10 72 18 88 8
16 15 38 15 48 0 24 35 166 45 182 4 6 8 21 10 33 6 48 27 155 40 202 17 63
52 226 60 282 4 24 11 45 16 49 5 3 9 21 9 40 0 20 5 44 10 54 6 10 15 54 21
97 5 43 19 112 29 153 40 156 50 320 26 402 -15 49 -76 152 -106 178 -9 8 -20
25 -24 37 -4 11 -13 26 -20 32 -11 9 -12 2 -8 -39z"/>
<path d="M7723 7978 c-44 -11 -65 -47 -65 -107 0 -70 31 -164 103 -315 74
-154 190 -204 261 -113 37 47 26 85 -98 343 -24 51 -44 96 -44 100 0 5 -15 26
-33 47 -37 43 -77 58 -124 45z"/>
<path d="M7870 7968 c0 -4 18 -43 40 -87 22 -44 40 -82 40 -84 0 -3 25 -58 56
-123 63 -131 75 -184 50 -231 -28 -56 -63 -75 -126 -70 -30 2 -66 8 -80 12
-21 6 -20 4 9 -19 19 -14 38 -26 43 -26 4 0 34 -20 65 -43 139 -104 227 -127
258 -67 17 32 20 107 6 142 -10 23 -20 54 -21 63 -4 23 -39 89 -70 130 -21 28
-43 67 -50 88 -6 20 -16 35 -21 32 -5 -4 -9 3 -9 14 0 12 -4 21 -10 21 -5 0
-10 7 -10 15 0 8 -4 15 -10 15 -5 0 -10 7 -10 15 0 8 -4 15 -8 15 -4 0 -13 12
-20 28 -17 39 -121 176 -122 160z"/>
<path d="M9437 6706 c-36 -32 -50 -41 -130 -86 -97 -53 -87 28 -87 -712 0
-359 4 -690 10 -736 13 -119 34 -158 133 -248 40 -36 140 -66 233 -70 109 -4
171 13 273 78 74 47 91 61 91 79 0 7 3 10 6 6 6 -6 54 45 54 58 0 3 6 12 13
20 23 22 50 123 43 159 -10 52 -37 76 -84 76 -42 0 -55 -10 -107 -85 -108
-153 -295 -185 -355 -60 -19 40 -20 62 -20 792 0 738 0 751 -20 756 -13 3 -31
-6 -53 -27z"/>
<path d="M3549 5530 c-1 -635 -4 -1252 -8 -1372 l-6 -216 -31 -39 c-63 -79
-178 -106 -271 -63 -38 17 -41 17 -32 2 6 -9 26 -28 44 -42 18 -14 31 -27 29
-29 -2 -3 13 -13 33 -23 21 -10 52 -28 68 -38 35 -23 30 -21 117 -49 63 -20
101 -22 183 -8 13 3 28 23 45 63 l25 59 0 745 c0 410 -2 988 -4 1286 -4 556
-3 569 35 599 7 6 14 19 16 30 3 17 14 21 63 26 33 3 79 9 102 13 47 8 41 16
62 -79 l9 -40 1 40 c2 100 -27 256 -52 277 -1 1 -98 4 -215 7 l-212 6 -1
-1155z"/>
<path d="M2693 6670 c-83 -19 -118 -73 -179 -273 -47 -154 -65 -187 -112 -202
l-32 -11 28 -17 c16 -9 48 -34 72 -57 115 -108 157 -86 242 124 51 124 94 191
135 207 13 5 66 16 119 25 106 18 144 10 144 -30 1 -17 2 -18 9 -6 5 8 11 67
12 130 l3 115 -205 2 c-112 0 -219 -2 -236 -7z"/>
<path d="M4526 6367 c-18 -13 -18 -45 -13 -758 5 -568 10 -767 21 -841 15
-100 61 -264 77 -274 5 -3 9 -12 9 -20 0 -16 85 -170 104 -189 6 -6 22 -26 36
-44 14 -18 54 -60 89 -94 35 -34 70 -69 79 -77 28 -28 147 -109 200 -137 28
-15 52 -31 52 -36 0 -4 4 -6 9 -2 5 3 12 1 16 -5 7 -12 187 -99 275 -133 69
-26 205 -68 280 -85 25 -6 74 -17 110 -26 311 -74 895 -99 1215 -52 17 3 68
10 115 16 204 27 525 120 700 202 47 22 90 41 96 42 6 1 23 10 37 19 15 10 27
14 27 10 0 -5 4 -3 8 3 4 6 36 26 72 45 36 19 67 37 70 40 3 3 23 18 46 32 22
14 47 31 55 39 8 8 35 29 61 47 26 19 45 38 42 43 -3 5 -2 7 3 6 10 -3 39 21
107 87 93 90 107 136 44 149 -70 14 -254 4 -323 -18 -5 -1 -30 -8 -54 -15 -23
-7 -116 -45 -205 -86 -226 -102 -277 -123 -386 -157 -126 -40 -338 -93 -425
-107 -349 -58 -782 -54 -1095 8 -30 6 -65 13 -78 16 -12 2 -25 6 -30 8 -4 3
-25 8 -47 11 -67 11 -244 64 -282 86 -31 16 -111 50 -122 50 -5 0 -11 3 -13 8
-1 4 -27 18 -55 31 -29 14 -53 28 -53 33 0 4 -3 7 -7 6 -13 -3 -86 39 -115 67
-16 14 -28 22 -28 18 0 -4 -4 -3 -8 2 -4 6 -32 30 -62 55 -30 25 -67 59 -82
75 -14 17 -45 50 -68 75 -22 25 -61 86 -85 135 -82 167 -78 119 -79 936 -1
700 -2 728 -20 748 -18 19 -29 21 -161 21 -102 0 -146 -4 -159 -13z"/>
<path d="M8535 6180 c-115 -23 -260 -103 -344 -189 -109 -112 -186 -288 -201
-461 -11 -126 24 -334 67 -399 10 -14 24 -38 33 -52 26 -45 65 -86 111 -114
24 -16 46 -31 49 -35 10 -14 100 -50 161 -65 130 -30 334 0 385 56 9 11 22 19
28 19 6 0 24 19 39 43 32 48 31 93 -1 137 -33 44 -62 52 -100 29 -50 -29 -146
-59 -190 -59 -47 0 -157 52 -192 91 -49 54 -55 64 -56 96 -2 39 5 43 107 57
31 4 88 18 125 32 38 14 78 27 89 29 11 3 21 9 23 15 2 5 12 10 22 10 9 0 23
7 30 15 7 8 17 15 22 15 5 0 26 11 46 25 20 14 33 25 28 25 -5 0 11 14 37 31
123 81 189 279 142 431 -48 161 -255 259 -460 218z m142 -197 c63 -33 79 -114
44 -216 -27 -79 -81 -154 -138 -192 -99 -67 -231 -107 -274 -84 -51 27 2 250
92 384 29 43 83 95 98 95 5 0 11 5 13 11 5 15 66 29 103 23 17 -2 45 -12 62
-21z"/>
<path d="M8535 5960 c-98 -51 -177 -184 -205 -345 -10 -55 -14 -103 -11 -107
10 -11 149 34 202 65 62 37 134 107 160 159 14 28 24 68 27 113 4 66 2 73 -23
103 -22 27 -34 32 -69 32 -23 0 -59 -9 -81 -20z"/>
<path d="M6833 6161 c-75 -12 -120 -43 -133 -92 -22 -79 17 -184 66 -184 12 1
39 14 60 30 l39 30 170 -3 c93 -2 174 -6 179 -9 26 -17 -54 -24 -190 -17
l-152 7 -38 -43 c-35 -38 -41 -42 -76 -37 -48 6 -48 1 0 -21 20 -9 48 -25 62
-35 98 -70 111 -75 172 -69 l59 5 -6 -32 c-3 -17 -4 -31 -2 -31 2 0 39 49 81
110 86 120 106 142 106 116 0 -16 -38 -78 -52 -84 -4 -2 -4 -11 -1 -20 3 -9 2
-14 -2 -10 -8 8 -55 -52 -55 -70 0 -5 -11 -19 -25 -32 -14 -13 -25 -29 -25
-35 0 -7 -8 -21 -17 -33 -10 -12 -36 -51 -58 -87 -22 -36 -82 -130 -134 -208
-51 -78 -96 -149 -99 -157 -7 -19 -73 -123 -82 -130 -15 -12 -51 -102 -46
-115 3 -8 16 -15 28 -15 929 -5 943 -5 972 10 48 24 84 79 102 154 16 61 16
72 2 110 -19 52 -56 73 -99 56 -16 -7 -29 -16 -29 -20 0 -4 -16 -25 -35 -46
l-36 -39 -186 -3 c-188 -3 -233 0 -233 18 0 6 79 10 208 10 230 0 238 2 247
60 5 31 4 32 -6 13 -16 -30 -62 -45 -97 -31 -21 9 -23 12 -9 15 9 3 17 8 17
12 0 5 16 28 35 52 19 24 35 55 35 68 0 13 13 40 29 60 15 20 41 56 56 81 15
25 31 47 35 50 3 3 10 12 13 20 4 8 20 38 37 65 16 28 46 84 67 125 34 67 38
83 38 152 0 65 -4 80 -22 100 -22 23 -46 71 -48 98 -1 8 -3 26 -4 39 -1 22 -4
20 -30 -20 -62 -95 -211 -330 -277 -437 -38 -62 -94 -152 -124 -200 -30 -49
-83 -134 -118 -189 -35 -56 -70 -107 -79 -115 -15 -12 -16 -10 -9 17 4 17 16
44 26 60 11 17 29 48 41 70 12 22 32 54 45 72 13 17 24 36 24 42 0 6 4 11 9
11 5 0 12 8 15 18 3 9 16 29 28 43 13 15 46 66 73 113 64 111 177 289 188 297
5 3 9 10 9 15 0 8 32 56 94 143 32 45 41 81 23 92 -8 5 -149 9 -314 9 -165 0
-343 2 -395 4 -52 3 -118 1 -147 -3z"/>
<path d="M5448 6140 c-52 -28 -68 -55 -68 -117 0 -60 11 -94 40 -123 28 -28
54 -25 96 13 l37 32 166 -3 c168 -4 224 -13 162 -27 -18 -4 -95 -4 -172 0
l-141 8 -41 -41 c-26 -25 -53 -42 -72 -44 l-30 -3 32 -17 c17 -10 38 -24 46
-33 32 -31 188 -75 236 -66 12 2 13 0 2 -13 -7 -8 -11 -23 -9 -32 2 -11 32 26
83 100 44 65 83 120 88 123 23 14 18 -35 -7 -59 -16 -16 -80 -108 -89 -128 -4
-8 -25 -42 -47 -75 -22 -33 -45 -71 -52 -85 -7 -14 -16 -27 -19 -30 -4 -3 -26
-38 -49 -79 -23 -41 -46 -79 -51 -85 -6 -6 -30 -45 -54 -86 -46 -78 -48 -82
-89 -140 -47 -66 -116 -192 -116 -210 0 -11 5 -22 11 -25 5 -4 217 -8 469 -10
l459 -3 50 23 c40 19 55 33 74 72 39 76 52 178 28 207 -6 7 -7 17 -3 21 4 5 1
5 -5 1 -7 -4 -13 -3 -13 3 0 5 -16 15 -36 21 -31 11 -37 10 -53 -9 -11 -12
-24 -35 -31 -51 -22 -53 -70 -62 -276 -57 -197 6 -204 7 -204 19 0 4 96 8 214
8 230 0 229 0 240 55 6 28 5 28 -5 8 -7 -13 -20 -25 -30 -28 -11 -3 -29 -8
-40 -11 -14 -4 -19 -2 -15 5 4 6 0 11 -11 12 -10 0 -13 3 -6 5 7 3 9 12 6 20
-3 7 2 16 10 20 21 8 60 67 124 186 8 15 18 30 24 33 5 4 18 26 29 50 11 24
24 47 30 50 5 3 10 17 10 29 0 13 8 34 19 47 34 44 82 153 95 214 14 71 12
111 -7 134 -25 28 -53 95 -56 130 -1 19 -3 36 -4 38 -2 1 -52 -75 -113 -169
-101 -160 -150 -239 -360 -583 -137 -224 -169 -267 -159 -215 4 21 63 131 75
140 4 3 17 25 31 50 13 25 35 61 49 80 28 39 31 44 96 155 51 88 107 177 141
228 12 17 35 56 52 85 17 28 36 52 41 52 6 0 10 6 10 13 0 7 16 37 36 67 54
82 57 89 44 105 -10 12 -87 14 -448 14 -415 0 -439 -1 -474 -19z"/>
<path d="M10098 5300 c24 -113 -12 -212 -118 -320 -209 -214 -568 -208 -723
12 -51 72 -62 60 -14 -14 47 -73 115 -148 135 -148 8 0 12 -3 8 -7 -3 -4 24
-27 61 -51 174 -112 356 -171 492 -158 127 13 139 16 187 62 25 24 48 44 52
44 4 1 15 17 26 38 10 20 27 54 37 74 23 44 28 167 9 224 -7 21 -29 64 -49 97
-20 32 -45 73 -55 90 -10 18 -27 46 -37 62 l-19 30 8 -35z"/>
<path d="M6276 5264 c-9 -8 -16 -20 -16 -26 0 -6 1 -9 3 -7 1 2 11 14 21 27
22 25 16 30 -8 6z"/>
<path d="M6445 5210 c57 -112 -28 -318 -144 -350 -27 -7 -187 -10 -463 -10
-233 1 -439 1 -458 0 l-34 0 39 -41 c73 -75 174 -129 241 -129 14 0 38 -7 53
-15 23 -11 74 -15 232 -15 112 -1 260 -5 328 -10 170 -13 220 -6 270 37 27 23
42 45 47 68 3 19 13 40 21 47 13 11 13 13 -4 19 -17 7 -17 8 1 8 16 1 17 3 5
18 -11 13 -11 15 -1 9 7 -4 24 -9 37 -11 14 -1 43 -19 66 -40 23 -20 61 -46
85 -56 24 -11 46 -24 49 -29 3 -5 27 -12 53 -16 26 -4 74 -15 107 -24 47 -13
106 -17 275 -19 118 0 272 -6 342 -13 167 -15 235 -2 293 55 l40 39 0 101 c0
95 -2 106 -32 162 -17 33 -43 77 -57 98 -14 21 -26 44 -26 50 0 17 -61 100
-68 93 -3 -3 0 -11 5 -18 67 -84 9 -290 -96 -345 l-44 -23 -511 2 -511 3 4 30
c1 16 16 56 33 88 30 61 32 88 3 43 -10 -14 -21 -24 -25 -21 -5 3 -11 -1 -13
-7 -4 -10 -8 -9 -16 2 -6 8 -11 20 -11 25 0 6 5 3 10 -5 6 -9 10 -10 10 -3 0
6 -7 19 -15 27 -9 9 -34 51 -55 94 -22 43 -49 87 -61 98 l-22 19 18 -35z"/>
<path d="M8029 5095 c17 -34 31 -51 31 -39 0 7 -9 22 -21 35 -16 19 -18 20
-10 4z"/>
<path d="M8642 4326 c-26 -72 -214 -245 -400 -369 -165 -111 -451 -236 -697
-306 -483 -138 -1081 -157 -1630 -51 -227 44 -459 122 -649 218 -115 58 -271
155 -336 208 -12 11 -28 24 -34 29 -7 6 -38 35 -69 65 -31 30 -57 50 -57 44 0
-14 136 -154 150 -154 5 0 10 -4 10 -9 0 -20 106 -111 129 -111 6 0 11 -4 11
-10 0 -5 7 -10 16 -10 8 0 13 -4 9 -9 -3 -5 5 -13 17 -17 13 -4 36 -17 51 -30
16 -13 34 -21 40 -17 7 3 9 3 5 -2 -7 -7 40 -45 106 -87 20 -13 333 -159 381
-178 90 -35 223 -80 237 -80 9 0 20 -5 23 -11 4 -5 17 -9 28 -8 12 1 31 -1 42
-5 46 -18 74 -25 135 -37 36 -6 76 -13 90 -15 14 -1 45 -7 70 -13 165 -36 259
-43 610 -45 195 0 375 3 400 7 25 5 92 13 150 19 58 5 117 16 131 24 15 7 43
16 64 20 20 3 58 12 83 21 26 8 74 21 107 28 90 20 156 41 190 59 17 9 38 16
48 16 11 0 31 8 45 19 15 10 45 24 67 31 22 7 49 20 60 30 11 10 34 21 50 24
17 4 38 15 48 24 10 9 25 17 34 18 8 2 25 12 37 23 12 12 27 21 33 21 6 0 28
17 49 39 22 21 54 46 71 55 19 9 35 27 39 41 3 14 11 25 17 25 19 0 117 112
117 134 0 12 7 32 16 44 26 37 10 121 -35 184 -21 29 -48 72 -61 96 -13 23
-26 42 -30 42 -3 0 -11 -15 -18 -34z"/>
<path d="M5545 4200 c3 -5 11 -10 16 -10 6 0 7 5 4 10 -3 6 -11 10 -16 10 -6
0 -7 -4 -4 -10z"/>
</g>
</svg>
